<svg xmlns="http://www.w3.org/2000/svg" xmlns:xlink="http://www.w3.org/1999/xlink" width="1080" zoomAndPan="magnify" viewBox="0 0 810 809.999993" height="1080" preserveAspectRatio="xMidYMid meet" version="1.0"><rect x="-81" width="972" fill="#ffffff" y="-80.999999" height="971.999992" fill-opacity="1"/><rect x="-81" width="972" fill="#ffffff" y="-80.999999" height="971.999992" fill-opacity="1"/><path fill="#00bf63" d="M 196.875 348.75 C 197.441406 416.347656 227.214844 480.398438 278.527344 524.402344 L 315 642.949219 L 315 686.25 C 315.039062 717.300781 340.199219 742.460938 371.25 742.5 L 438.75 742.5 C 469.804688 742.460938 494.964844 717.300781 495 686.25 L 495 642.949219 L 531.476562 524.402344 C 582.789062 480.398438 612.558594 416.347656 613.125 348.75 C 613.125 237.925781 525.601562 157.5 405 157.5 C 284.398438 157.5 196.875 237.925781 196.875 348.75 Z M 472.5 675 L 337.5 675 L 337.5 652.5 L 472.5 652.5 Z M 438.75 720 L 371.25 720 C 356.953125 719.980469 344.210938 710.972656 339.421875 697.496094 L 470.578125 697.496094 C 465.792969 710.972656 453.050781 719.980469 438.75 720 Z M 475.449219 629.996094 L 334.550781 629.996094 L 308.828125 546.367188 C 367.753906 582.890625 442.273438 582.890625 501.199219 546.367188 Z M 381.859375 413.054688 L 398.355469 424.921875 C 402.277344 427.746094 407.566406 427.746094 411.492188 424.921875 L 428.175781 412.878906 C 427.773438 413.957031 427.546875 415.09375 427.5 416.25 L 427.5 549.425781 C 412.597656 551.859375 397.402344 551.859375 382.503906 549.425781 L 382.503906 416.25 C 382.445312 415.15625 382.230469 414.078125 381.859375 413.054688 Z M 405 180 C 512.566406 180 590.625 250.976562 590.625 348.75 C 590.625 439.808594 528.75 521.191406 450.003906 544.421875 L 450.003906 418.902344 L 458.382812 424.921875 C 462.308594 427.746094 467.597656 427.746094 471.523438 424.921875 L 501.570312 403.332031 C 504.925781 401.019531 506.765625 397.078125 506.386719 393.023438 C 506.011719 388.964844 503.464844 385.433594 499.742188 383.785156 C 496.011719 382.136719 491.691406 382.628906 488.429688 385.074219 L 464.953125 401.949219 L 441.488281 385.074219 C 437.558594 382.253906 432.269531 382.253906 428.347656 385.074219 L 404.925781 401.949219 L 381.503906 385.074219 C 377.574219 382.246094 372.28125 382.246094 368.351562 385.074219 L 344.949219 401.949219 L 321.582031 385.074219 C 316.539062 381.4375 309.507812 382.578125 305.871094 387.621094 C 302.234375 392.667969 303.378906 399.699219 308.421875 403.332031 L 338.371094 424.921875 C 342.296875 427.757812 347.597656 427.757812 351.53125 424.921875 L 360 418.824219 L 360 544.421875 C 281.25 521.191406 219.375 439.808594 219.375 348.75 C 219.375 250.976562 297.441406 180 405 180 Z M 405 180 " fill-opacity="1" fill-rule="nonzero"/><path fill="#00bf63" d="M 247.757812 396.1875 C 248.90625 401.339844 253.476562 405.003906 258.75 404.996094 C 259.574219 404.992188 260.398438 404.910156 261.203125 404.738281 C 264.117188 404.09375 266.660156 402.316406 268.265625 399.796875 C 269.871094 397.273438 270.402344 394.21875 269.753906 391.308594 C 258.894531 349.816406 267.78125 305.625 293.851562 271.5625 C 318.320312 241.632812 355.097656 224.488281 393.75 225 C 399.964844 225 405.003906 219.960938 405.003906 213.75 C 405.003906 207.535156 399.964844 202.496094 393.75 202.496094 C 348.261719 201.960938 305.015625 222.203125 276.292969 257.480469 C 245.898438 296.835938 235.367188 348.03125 247.757812 396.1875 Z M 247.757812 396.1875 " fill-opacity="1" fill-rule="nonzero"/><path fill="#00bf63" d="M 427.5 225 L 438.75 225 C 444.964844 225 450.003906 219.964844 450.003906 213.75 C 450.003906 207.539062 444.964844 202.5 438.75 202.5 L 427.5 202.5 C 421.289062 202.5 416.253906 207.539062 416.253906 213.75 C 416.253906 219.964844 421.289062 225 427.5 225 Z M 427.5 225 " fill-opacity="1" fill-rule="nonzero"/><path fill="#00bf63" d="M 416.25 123.75 L 416.25 78.75 C 416.25 72.539062 411.210938 67.5 405 67.5 C 398.785156 67.5 393.746094 72.539062 393.746094 78.75 L 393.746094 123.75 C 393.746094 129.960938 398.785156 135 405 135 C 411.210938 135 416.25 129.960938 416.25 123.75 Z M 416.25 123.75 " fill-opacity="1" fill-rule="nonzero"/><path fill="#00bf63" d="M 577.046875 577.046875 C 572.65625 581.441406 572.65625 588.558594 577.046875 592.953125 L 610.796875 626.703125 C 615.210938 630.964844 622.226562 630.90625 626.566406 626.566406 C 630.90625 622.226562 630.964844 615.210938 626.703125 610.796875 L 592.953125 577.046875 C 588.558594 572.65625 581.441406 572.65625 577.046875 577.046875 Z M 577.046875 577.046875 " fill-opacity="1" fill-rule="nonzero"/><path fill="#00bf63" d="M 154.203125 138.292969 C 149.785156 134.03125 142.769531 134.089844 138.429688 138.429688 C 134.089844 142.769531 134.03125 149.785156 138.292969 154.203125 L 172.042969 187.953125 C 176.460938 192.214844 183.476562 192.152344 187.8125 187.8125 C 192.152344 183.476562 192.214844 176.460938 187.953125 172.042969 Z M 154.203125 138.292969 " fill-opacity="1" fill-rule="nonzero"/><path fill="#00bf63" d="M 183.296875 626.699219 C 187.691406 631.089844 194.8125 631.089844 199.207031 626.699219 L 232.957031 592.949219 C 237.21875 588.535156 237.15625 581.519531 232.816406 577.183594 C 228.480469 572.84375 221.464844 572.78125 217.046875 577.042969 L 183.296875 610.792969 C 178.90625 615.1875 178.90625 622.304688 183.296875 626.699219 Z M 183.296875 626.699219 " fill-opacity="1" fill-rule="nonzero"/><path fill="#00bf63" d="M 168.75 393.746094 L 112.5 393.746094 C 106.289062 393.746094 101.25 398.785156 101.25 405 C 101.25 411.210938 106.289062 416.25 112.5 416.25 L 168.75 416.25 C 174.960938 416.25 180 411.210938 180 405 C 180 398.785156 174.960938 393.746094 168.75 393.746094 Z M 168.75 393.746094 " fill-opacity="1" fill-rule="nonzero"/><path fill="#00bf63" d="M 655.800781 138.292969 L 622.050781 172.042969 C 619.125 174.867188 617.953125 179.054688 618.984375 182.984375 C 620.011719 186.917969 623.082031 189.988281 627.015625 191.015625 C 630.949219 192.050781 635.132812 190.875 637.957031 187.953125 L 671.707031 154.203125 C 675.96875 149.785156 675.90625 142.769531 671.570312 138.429688 C 667.230469 134.089844 660.214844 134.03125 655.800781 138.292969 Z M 655.800781 138.292969 " fill-opacity="1" fill-rule="nonzero"/><path fill="#00bf63" d="M 629.996094 405 C 629.996094 411.210938 635.035156 416.25 641.25 416.25 L 697.496094 416.25 C 703.710938 416.25 708.75 411.210938 708.75 405 C 708.75 398.785156 703.710938 393.746094 697.496094 393.746094 L 641.25 393.746094 C 635.035156 393.746094 629.996094 398.785156 629.996094 405 Z M 629.996094 405 " fill-opacity="1" fill-rule="nonzero"/></svg>